<svg width="1445" height="653" viewBox="0 0 1445 653" xmlns="http://www.w3.org/2000/svg"><title>bg/background-pattern-d</title><g fill="none" fill-rule="evenodd"><path d="M1417.105 558.02l5.141-9.663a5.277 5.277 0 0 1 7.135-2.177 5.27 5.27 0 0 1 2.184 7.129 69.802 69.802 0 0 0-7.366 22.8c-1.722 12.068-1.314 19.145.227 27.227a5.275 5.275 0 0 1-5.277 5.273 5.277 5.277 0 0 1-5.278-5.274v-10.95c-.755-3.214-2.92-5.55-6.033-5.55C1405.57 586.836 936.292 537.89 0 440V47.678L24.308 8.61a5.282 5.282 0 0 1 7.017-2.559c2.641 1.232 3.783 4.374 2.06 8.069-.678 3.236.294 6.27 3.116 7.586 3.082 1.437 6.633.047 8.072-3.038l3.425-7.342a5.282 5.282 0 0 1 7.017-2.56c2.642 1.232 3.783 4.374 2.06 8.07-.678 3.235.294 6.27 3.116 7.586 3.082 1.436 6.634.046 8.073-3.039l5.02-10.763a5.282 5.282 0 0 1 7.017-2.558c2.642 1.231 3.784 4.373 2.06 8.068-.678 3.236.294 6.27 3.117 7.586 3.081 1.437 6.633.047 8.072-3.038l7.413-15.892a5.282 5.282 0 0 1 7.017-2.56 5.279 5.279 0 0 1 2.55 7.019l-4.16 8.916c-.677 3.236.295 6.271 3.117 7.587 3.082 1.436 6.634.046 8.073-3.039l9.168-19.655a5.282 5.282 0 0 1 7.017-2.56 5.279 5.279 0 0 1 2.55 7.02l-4.638 9.942c-.678 3.236.294 6.271 3.116 7.587 3.082 1.436 6.634.046 8.073-3.039l8.69-18.629a5.282 5.282 0 0 1 7.017-2.558 5.279 5.279 0 0 1 2.55 7.018l-5.436 11.652c-.678 3.236.294 6.271 3.116 7.587 3.082 1.436 6.634.046 8.073-3.039l1.51-3.237a5.282 5.282 0 0 1 7.017-2.56 5.279 5.279 0 0 1 2.55 7.02l-2.405 5.154c-.677 3.236.295 6.27 3.117 7.586 3.081 1.437 6.633.047 8.072-3.039l2.787-5.974a5.282 5.282 0 0 1 7.017-2.558c2.642 1.231 3.783 4.373 1.74 8.752-.677 3.236.295 6.271 3.117 7.587 3.082 1.436 6.634.046 8.073-3.039l8.85-18.971a5.282 5.282 0 0 1 7.016-2.56 5.279 5.279 0 0 1 2.55 7.02l-4.957 10.626c-.678 3.236.294 6.271 3.116 7.587 3.082 1.436 6.634.046 7.097-.946a5.282 5.282 0 0 1 7.016-2.56 5.279 5.279 0 0 1 2.55 7.02l-4.704 10.084c-.678 3.236.294 6.271 3.116 7.587 3.082 1.436 6.634.046 8.073-3.039l4.767-10.22a5.282 5.282 0 0 1 7.017-2.56 5.279 5.279 0 0 1 2.55 7.02l-4.385 9.4c-.678 3.236.294 6.271 3.116 7.587 3.082 1.436 6.634.046 8.333-3.597 1.278-2.74 4.36-4.005 7.097-2.73 2.736 1.276 3.747 4.45 2.47 7.19l-3.376 7.237c-1.26 4.482.92 6.594 3.338 7.721 3.081 1.437 6.989.184 8.544-3.151 1.234-2.645 4.086-3.925 6.728-2.694 2.642 1.232 3.494 4.24 2.26 6.884l-6.765 14.503c-.677 3.236.295 6.271 3.117 7.587 3.082 1.436 6.633.046 8.072-3.039l9.169-19.655a5.282 5.282 0 0 1 7.017-2.559 5.279 5.279 0 0 1 2.55 7.018l-4.639 9.943c-.677 3.236.295 6.271 3.117 7.587 3.082 1.436 6.633.046 8.072-3.039l8.69-18.628a5.282 5.282 0 0 1 7.017-2.56 5.279 5.279 0 0 1 2.55 7.02l-5.436 11.652c-.677 3.236.294 6.27 3.117 7.586 3.081 1.437 6.633.047 8.072-3.039l1.51-3.237a5.282 5.282 0 0 1 7.017-2.559 5.279 5.279 0 0 1 2.55 7.018l-2.404 5.155c-.678 3.236.294 6.27 3.116 7.586 3.082 1.437 6.634.047 8.073-3.038L374 114.99a5.282 5.282 0 0 1 7.017-2.56c2.642 1.232 3.784 4.374 1.741 8.753-.678 3.236.294 6.271 3.117 7.587 3.081 1.436 6.633.046 8.072-3.039l8.85-18.971a5.282 5.282 0 0 1 7.016-2.559 5.279 5.279 0 0 1 2.55 7.018l-4.957 10.627c-.678 3.236.294 6.271 3.116 7.587 3.082 1.436 6.634.046 7.097-.946a5.282 5.282 0 0 1 7.017-2.559 5.279 5.279 0 0 1 2.55 7.018l-4.705 10.086c-.678 3.236.294 6.27 3.117 7.586 3.081 1.437 6.633.047 8.072-3.039l4.768-10.22a5.282 5.282 0 0 1 7.017-2.559 5.279 5.279 0 0 1 2.55 7.018l-4.386 9.401c-.678 3.236.294 6.271 3.116 7.587 3.082 1.436 6.634.046 8.333-3.597 1.278-2.739 4.361-4.005 7.097-2.73 2.736 1.276 3.748 4.45 2.47 7.19l-3.376 7.237c-1.259 4.482.92 6.594 3.338 7.721 3.082 1.437 6.99.184 8.545-3.151 1.233-2.645 4.086-3.925 6.728-2.694 2.641 1.232 3.494 4.24 2.26 6.884l-4.213 9.03c-.677 3.237.295 6.272 3.117 7.587 3.082 1.437 6.633.047 8.073-3.038l6.615-14.183a5.282 5.282 0 0 1 7.017-2.559 5.279 5.279 0 0 1 2.55 7.018l-4.638 9.943c-.678 3.237.294 6.271 3.116 7.587 3.082 1.436 6.634.047 8.073-3.039l8.69-18.628a5.282 5.282 0 0 1 7.016-2.559 5.279 5.279 0 0 1 2.55 7.018l-5.435 11.653c-.678 3.236.294 6.27 3.116 7.586 3.082 1.437 6.634.047 8.073-3.038l1.51-3.238a5.282 5.282 0 0 1 7.017-2.559 5.279 5.279 0 0 1 2.55 7.018l-2.405 5.155c-.678 3.236.294 6.27 3.117 7.586 3.081 1.437 6.633.047 8.072-3.038l2.787-5.974a5.282 5.282 0 0 1 7.017-2.559c2.641 1.231 3.783 4.374 1.74 8.752-.677 3.236.295 6.271 3.117 7.587 3.082 1.436 6.633.046 8.073-3.039l8.849-18.971a5.282 5.282 0 0 1 7.017-2.559 5.279 5.279 0 0 1 2.55 7.018l-4.958 10.627c-.677 3.237.295 6.271 3.117 7.587 3.082 1.436 6.633.047 7.096-.946a5.282 5.282 0 0 1 7.017-2.559 5.279 5.279 0 0 1 2.55 7.018l-4.704 10.086c-.678 3.236.294 6.27 3.116 7.586 3.082 1.437 6.634.047 8.073-3.038l4.767-10.221a5.282 5.282 0 0 1 7.017-2.559 5.279 5.279 0 0 1 2.55 7.018l-4.386 9.402c-.677 3.236.295 6.27 3.117 7.586 3.082 1.437 6.633.047 8.333-3.597 1.278-2.739 4.36-4.005 7.097-2.73 2.736 1.276 3.747 4.45 2.47 7.19l-3.377 7.237c-1.258 4.482.92 6.594 3.338 7.722 3.082 1.436 6.99.183 8.545-3.152 1.234-2.645 4.086-3.925 6.728-2.694 2.642 1.232 3.494 4.24 2.26 6.884l-6.765 14.504c-.677 3.236.295 6.27 3.117 7.586 3.081 1.437 6.633.047 8.072-3.038l9.169-19.656a5.282 5.282 0 0 1 7.017-2.559 5.279 5.279 0 0 1 2.55 7.019l-4.639 9.943c-.677 3.236.295 6.27 3.117 7.586 3.082 1.437 6.633.047 8.072-3.038l8.69-18.63a5.282 5.282 0 0 1 7.017-2.558 5.279 5.279 0 0 1 2.55 7.018l-5.436 11.653c-.678 3.236.294 6.27 3.116 7.586 3.082 1.437 6.634.047 8.073-3.038l1.51-3.238a5.282 5.282 0 0 1 7.017-2.559 5.279 5.279 0 0 1 2.55 7.018l-2.404 5.155c-.678 3.236.294 6.27 3.116 7.586 3.082 1.437 6.634.047 8.073-3.038l2.786-5.974a5.282 5.282 0 0 1 7.017-2.559c2.642 1.232 3.783 4.374 1.74 8.752-.677 3.237.295 6.271 3.117 7.587 3.082 1.437 6.634.047 8.073-3.039l8.85-18.971a5.282 5.282 0 0 1 7.016-2.559 5.279 5.279 0 0 1 2.55 7.019l-4.957 10.627c-.678 3.236.294 6.27 3.116 7.586 3.082 1.437 6.634.047 7.097-.946a5.282 5.282 0 0 1 7.017-2.559 5.279 5.279 0 0 1 2.55 7.019l-4.705 10.085c-.678 3.236.294 6.27 3.116 7.586 3.082 1.437 6.634.047 8.073-3.038l4.768-10.221a5.282 5.282 0 0 1 7.017-2.559 5.279 5.279 0 0 1 2.55 7.018l-4.386 9.402c-.678 3.236.294 6.27 3.116 7.586 3.082 1.437 6.634.047 8.333-3.597 1.278-2.739 4.361-4.005 7.097-2.73 2.736 1.276 3.748 4.45 2.47 7.19l-3.376 7.237c-1.259 4.482.92 6.594 3.338 7.722 3.082 1.436 6.989.183 8.545-3.152 1.233-2.645 4.086-3.925 6.727-2.693 2.642 1.231 3.495 4.238 2.261 6.883l-4.213 9.031c-.677 3.236.295 6.271 3.117 7.587 3.082 1.436 6.633.046 7.987-2.856a5.282 5.282 0 0 1 7.017-2.559c2.642 1.231 3.783 4.374 2.38 7.384-.679 3.236.293 6.271 3.116 7.587 3.081 1.436 6.633.046 8.072-3.039l14.912-31.969a5.282 5.282 0 0 1 7.017-2.558 5.279 5.279 0 0 1 2.55 7.018l-5.915 12.68c-.677 3.235.295 6.27 3.117 7.586 3.082 1.436 6.633.046 8.073-3.039l1.829-3.922a5.282 5.282 0 0 1 7.017-2.558 5.279 5.279 0 0 1 2.55 7.018l-5.915 12.679c-.678 3.236.294 6.271 3.117 7.586 3.081 1.437 6.633.047 8.072-3.038l13.955-29.917a5.282 5.282 0 0 1 7.017-2.558 5.279 5.279 0 0 1 2.55 7.018l-5.915 12.68c-.677 3.235.295 6.27 3.117 7.586 3.081 1.436 6.633.046 8.072-3.039l1.191-2.554a5.282 5.282 0 0 1 7.017-2.558c2.642 1.231 3.784 4.373 2.06 8.068-.677 3.236.295 6.27 3.117 7.586 3.081 1.437 6.633.047 8.072-3.038l6.297-13.499a5.282 5.282 0 0 1 7.017-2.559c2.642 1.232 3.783 4.374 2.06 8.069-.678 3.236.294 6.27 3.116 7.586 3.082 1.437 6.634.047 8.073-3.038l4.063-8.71a5.282 5.282 0 0 1 7.017-2.56c2.641 1.232 3.783 4.374 2.06 8.069-.678 3.236.294 6.27 3.116 7.586 3.082 1.437 6.634.047 8.073-3.038l13.795-29.574a5.282 5.282 0 0 1 7.017-2.559 5.279 5.279 0 0 1 2.55 7.018l-6.393 13.705c-.678 3.236.294 6.271 3.116 7.587 3.082 1.436 6.633.046 8.073-3.039l1.51-3.238a5.282 5.282 0 0 1 7.017-2.558c2.642 1.231 3.783 4.373 2.06 8.068-.678 3.236.294 6.27 3.116 7.586 3.082 1.437 6.634.047 8.073-3.038l21.134-45.308a5.282 5.282 0 0 1 7.017-2.558 5.279 5.279 0 0 1 2.55 7.018l-17.562 37.647c-.677 3.236.295 6.27 3.117 7.586 3.082 1.437 6.633.047 8.073-3.038l7.892-16.92a5.282 5.282 0 0 1 7.017-2.558c2.641 1.231 3.783 4.374 2.06 8.068-.678 3.236.294 6.271 3.116 7.587 3.082 1.436 6.633.046 8.072-3.039l5.978-12.815a5.282 5.282 0 0 1 7.017-2.558 5.279 5.279 0 0 1 2.55 7.018l-4 8.575c-.678 3.236.294 6.27 3.116 7.586 3.082 1.437 6.634.047 8.073-3.038l14.274-30.6a5.282 5.282 0 0 1 7.017-2.56 5.279 5.279 0 0 1 2.55 7.019l-5.915 12.679c-.678 3.236.294 6.27 3.116 7.586 3.082 1.437 6.634.047 8.373-3.682a5.282 5.282 0 0 1 7.017-2.559 5.279 5.279 0 0 1 2.55 7.019l-4.385 9.4c-.678 3.237.294 6.272 3.116 7.587 3.082 1.437 6.634.047 8.073-3.038l8.105-17.376c1.233-2.644 5.092-3.456 7.734-2.224 2.642 1.231 4.128 4.534 2.894 7.179-1.556 3.335-.852 6.737 2.23 8.174 3.083 1.437 6.075-.214 7.514-3.3l5.764-12.358a5.282 5.282 0 0 1 7.017-2.558 5.279 5.279 0 0 1 2.55 7.018l-3.85 8.254c-1.44 3.085.524 7.046 3.607 8.483 3.081 1.436 7.074.223 8.63-3.112 1.233-2.645 3.787-4.064 6.756-2.68 2.642 1.231 3.332 4.163 2.098 6.808-1.555 3.334-.01 7.13 3.072 8.566 3.082 1.437 7.197.31 8.636-2.775l3.85-8.254a5.282 5.282 0 0 1 7.017-2.56 5.279 5.279 0 0 1 2.55 7.019l-5.765 12.358c-1.439 3.086-.644 6.502 2.438 7.938 3.082 1.437 6.279-.147 7.835-3.482 1.233-2.645 4.628-3.672 7.27-2.44 2.642 1.23 4.318 4.622 3.085 7.267l-8.105 17.375c-1.44 3.085-.222 6.699 2.86 8.135 2.822 1.316 5.773.11 7.817-2.49l4.385-9.4a5.282 5.282 0 0 1 7.017-2.56c2.642 1.232 3.783 4.374 2.25 7.662-1.44 3.086-.222 6.699 2.86 8.136 2.822 1.315 5.773.109 7.817-2.49l5.914-12.68a5.282 5.282 0 0 1 7.017-2.558 5.279 5.279 0 0 1 2.55 7.018l-14.274 30.6c-1.44 3.086-.221 6.699 2.86 8.135 2.822 1.316 5.773.11 7.817-2.49l4-8.574a5.282 5.282 0 0 1 7.017-2.56 5.279 5.279 0 0 1 2.55 7.02l-5.978 12.814c-1.44 3.085-.221 6.698 2.86 8.135 2.822 1.316 5.773.11 8.307-3.54a5.282 5.282 0 0 1 7.017-2.559 5.279 5.279 0 0 1 2.55 7.018l-7.893 16.92c-1.439 3.085-.221 6.698 2.86 8.135 2.823 1.315 5.773.109 7.818-2.49l17.56-37.647a5.282 5.282 0 0 1 7.017-2.56 5.279 5.279 0 0 1 2.55 7.02l-21.134 45.307c-1.44 3.085-.221 6.698 2.86 8.135 2.823 1.315 5.773.109 8.307-3.54a5.282 5.282 0 0 1 7.017-2.56 5.279 5.279 0 0 1 2.55 7.02l-1.51 3.237c-1.44 3.085-.222 6.698 2.86 8.135 2.822 1.315 5.772.109 7.817-2.49l6.392-13.705a5.282 5.282 0 0 1 7.017-2.558 5.279 5.279 0 0 1 2.55 7.018l-13.795 29.574c-1.44 3.085-.222 6.698 2.86 8.135 3.274.859 5.99-.039 8.146-2.693z" fill="#C9A9D5"/><path d="M1342.65 594.386L0 420C.644 157.167 1.17 25.846 1.58 26.036c3.083 1.438 6.638.045 8.079-3.046l1.832-3.93a5.287 5.287 0 0 1 7.023-2.565 5.287 5.287 0 0 1 2.549 7.03l-1.13 2.422c-.679 3.242.293 6.282 3.116 7.598 3.084 1.438 6.639.045 8.08-3.046l1.832-3.93a5.287 5.287 0 0 1 7.023-2.565 5.287 5.287 0 0 1 2.549 7.03l-1.769 3.793c-.68 3.242.442 6.205 3.207 7.64 2.905 1.508 6.248.703 7.486-1.654 0 0 2.133-4.045 6.616-1.872 2.625 1.273 3.716 4.348 1.924 8.192-.68 3.242.292 6.282 3.116 7.599 3.084 1.437 6.638.044 8.08-3.047l5.094-10.925a5.287 5.287 0 0 1 7.023-2.566c2.643 1.233 3.784 4.38 1.992 8.224-.68 3.242.292 6.282 3.116 7.598 3.083 1.438 6.638.045 8.08-3.046l2.177-4.672c1.28-2.744 4.366-4.013 7.103-2.737 2.738 1.277 3.749 4.457 1.645 8.97-1.261 4.49.948 6.618 3.367 7.746 3.084 1.439 7.07.217 8.649-3.17l9.193-19.714a5.287 5.287 0 0 1 7.023-2.566 5.287 5.287 0 0 1 2.549 7.03l-7.361 15.786c-.68 3.242.292 6.281 3.116 7.598 3.083 1.438 6.638.044 8.08-3.046l1.512-3.244a5.287 5.287 0 0 1 7.023-2.566 5.287 5.287 0 0 1 2.549 7.03l-1.13 2.422c-.68 3.242.292 6.282 3.116 7.599 3.084 1.437 6.638.044 8.08-3.047l1.832-3.93a5.287 5.287 0 0 1 7.023-2.565 5.287 5.287 0 0 1 2.549 7.03l-1.13 2.422c-.68 3.242.292 6.282 3.116 7.599 3.083 1.437 6.638.044 8.08-3.047l1.832-3.93a5.287 5.287 0 0 1 7.023-2.565 5.287 5.287 0 0 1 2.549 7.03l-1.77 3.793c-.679 3.242.443 6.205 3.208 7.64 2.904 1.508 6.248.703 7.486-1.654 0 0 2.132-4.045 6.616-1.872 2.625 1.273 3.716 4.348 1.924 8.192-.68 3.242.292 6.282 3.116 7.599 3.083 1.438 6.638.044 8.08-3.047l5.093-10.925a5.287 5.287 0 0 1 7.023-2.566c2.644 1.233 3.785 4.38 1.992 8.224-.679 3.242.293 6.282 3.116 7.599 3.084 1.438 6.639.044 8.08-3.047l2.178-4.671c1.28-2.745 4.365-4.014 7.103-2.737 2.738 1.276 3.749 4.456 1.645 8.969-1.262 4.49.948 6.619 3.367 7.747 3.084 1.438 7.07.216 8.649-3.17l2.801-6.008a5.287 5.287 0 0 1 7.023-2.566 5.287 5.287 0 0 1 2.549 7.03l-7.361 15.786c-.68 3.242.292 6.282 3.116 7.598 3.084 1.438 6.638.045 8.08-3.046l1.512-3.244a5.287 5.287 0 0 1 7.023-2.566 5.287 5.287 0 0 1 2.549 7.03l-1.13 2.422c-.679 3.242.293 6.282 3.116 7.599 3.084 1.438 6.639.044 8.08-3.047l1.832-3.929a5.287 5.287 0 0 1 7.023-2.566 5.287 5.287 0 0 1 2.549 7.03l-1.13 2.422c-.679 3.242.293 6.282 3.116 7.599 3.084 1.438 6.639.044 8.08-3.047l1.832-3.929a5.287 5.287 0 0 1 7.023-2.566 5.287 5.287 0 0 1 2.549 7.03l-1.769 3.793c-.68 3.242.442 6.205 3.207 7.64 2.905 1.508 6.248.704 7.486-1.654 0 0 2.133-4.045 6.616-1.871 2.625 1.272 3.717 4.348 1.924 8.192-.68 3.242.292 6.281 3.116 7.598 3.084 1.438 6.638.044 8.08-3.047l5.094-10.925a5.287 5.287 0 0 1 7.023-2.565c2.643 1.232 3.784 4.38 1.992 8.223-.68 3.242.292 6.282 3.116 7.599 3.083 1.438 6.638.044 8.08-3.047l2.178-4.671c1.28-2.744 4.365-4.014 7.102-2.737 2.738 1.277 3.749 4.456 1.645 8.969-1.261 4.49.948 6.619 3.367 7.747 3.084 1.438 7.07.216 8.65-3.17l1.522-3.266a5.287 5.287 0 0 1 7.023-2.566 5.287 5.287 0 0 1 2.549 7.03l-7.36 15.786c-.68 3.242.291 6.281 3.115 7.598 3.084 1.438 6.639.044 8.08-3.047l1.512-3.243a5.287 5.287 0 0 1 7.023-2.566 5.287 5.287 0 0 1 2.55 7.03l-1.13 2.422c-.68 3.242.292 6.282 3.116 7.598 3.083 1.438 6.638.045 8.08-3.046l1.831-3.93a5.287 5.287 0 0 1 7.023-2.565 5.287 5.287 0 0 1 2.55 7.03l-1.13 2.422c-.68 3.242.292 6.282 3.115 7.598 3.084 1.438 6.639.045 8.08-3.046l1.832-3.93a5.287 5.287 0 0 1 7.023-2.565 5.287 5.287 0 0 1 2.549 7.03l-1.769 3.793c-.679 3.242.442 6.205 3.207 7.64 2.905 1.508 6.248.703 7.486-1.654 0 0 2.133-4.045 6.617-1.872 2.624 1.273 3.716 4.348 1.923 8.192-.68 3.242.293 6.282 3.116 7.599 3.084 1.438 6.639.044 8.08-3.047l5.094-10.925a5.287 5.287 0 0 1 7.023-2.566 5.287 5.287 0 0 1 2.549 7.03l-8.866 19.013c-.68 3.242.293 6.282 3.116 7.599 3.084 1.437 6.639.044 8.08-3.047l1.832-3.93a5.287 5.287 0 0 1 7.023-2.565 5.287 5.287 0 0 1 2.549 7.03l-1.769 3.793c-.68 3.242.442 6.205 3.207 7.64 2.905 1.508 6.248.703 7.486-1.654 0 0 2.133-4.045 6.616-1.872 2.625 1.273 3.716 4.348 1.924 8.192-.68 3.242.292 6.282 3.116 7.599 3.083 1.438 6.638.044 8.08-3.047l5.094-10.925a5.287 5.287 0 0 1 7.023-2.566c2.643 1.233 3.784 4.38 1.992 8.224-.68 3.242.292 6.282 3.116 7.599 3.083 1.437 6.638.044 8.08-3.047l2.177-4.671c1.28-2.745 4.366-4.014 7.103-2.737 2.738 1.276 3.749 4.456 1.645 8.969-1.261 4.49.948 6.619 3.367 7.747 3.084 1.438 7.07.216 8.649-3.17l2.801-6.008a5.287 5.287 0 0 1 7.023-2.566 5.287 5.287 0 0 1 2.55 7.03l-7.362 15.786c-.679 3.242.293 6.282 3.116 7.598 3.084 1.438 6.639.045 8.08-3.046l1.512-3.244a5.287 5.287 0 0 1 7.023-2.566 5.287 5.287 0 0 1 2.55 7.03l-1.13 2.422c-.68 3.242.292 6.282 3.116 7.599 3.083 1.438 6.638.044 8.08-3.047l1.831-3.929a5.287 5.287 0 0 1 7.023-2.566 5.287 5.287 0 0 1 2.55 7.03l-1.13 2.422c-.68 3.242.292 6.282 3.116 7.599 3.083 1.438 6.638.044 8.08-3.047l1.831-3.929a5.287 5.287 0 0 1 7.023-2.566 5.287 5.287 0 0 1 2.55 7.03l-1.77 3.793c-.679 3.242.442 6.205 3.207 7.64 2.905 1.508 6.248.703 7.487-1.654 0 0 2.132-4.045 6.616-1.871 2.624 1.272 3.716 4.348 1.923 8.192-.679 3.242.293 6.281 3.116 7.598 3.084 1.438 6.639.044 8.08-3.047l5.094-10.925a5.287 5.287 0 0 1 7.023-2.565c2.643 1.232 3.784 4.38 1.992 8.223-.68 3.242.292 6.282 3.116 7.599 3.084 1.438 6.638.044 8.08-3.047l2.178-4.671c1.28-2.744 4.365-4.014 7.103-2.737 2.737 1.277 3.748 4.456 1.644 8.969-1.261 4.49.948 6.619 3.367 7.747 3.085 1.438 7.07.216 8.65-3.17l1.522-3.266a5.287 5.287 0 0 1 7.023-2.566 5.287 5.287 0 0 1 2.55 7.03l-7.362 15.786c-.679 3.242.293 6.281 3.116 7.598 3.084 1.438 6.639.044 8.08-3.047l1.513-3.243a5.287 5.287 0 0 1 7.022-2.566 5.287 5.287 0 0 1 2.55 7.03l-1.13 2.422c-.68 3.242.292 6.282 3.116 7.598 3.083 1.438 6.638.045 8.08-3.046l1.831-3.93a5.287 5.287 0 0 1 7.023-2.565 5.287 5.287 0 0 1 2.55 7.03l-1.13 2.422c-.68 3.242.292 6.282 3.116 7.598 3.083 1.438 6.638.045 8.08-3.046l1.831-3.93a5.287 5.287 0 0 1 7.023-2.565 5.287 5.287 0 0 1 2.55 7.03l-1.77 3.793c-.679 3.242.442 6.205 3.207 7.64 2.905 1.508 6.249.703 7.487-1.654 0 0 2.132-4.045 6.616-1.872 2.624 1.273 3.716 4.348 1.923 8.192-.679 3.242.293 6.282 3.116 7.599 3.084 1.438 6.639.044 8.08-3.047l5.094-10.925a5.287 5.287 0 0 1 7.023-2.566c2.643 1.233 3.785 4.38 1.992 8.224-.68 3.242.292 6.282 3.116 7.598 3.084 1.438 6.639.045 8.08-3.046l2.178-4.672c1.28-2.744 4.365-4.013 7.103-2.736 2.737 1.276 3.748 4.456 1.644 8.968-1.26 4.49.949 6.62 3.367 7.747 3.085 1.439 7.07.217 8.65-3.17l1.683-3.61a5.287 5.287 0 0 1 7.023-2.565c2.643 1.233 3.784 4.38 2.058 8.082-.68 3.241.292 6.281 3.116 7.598 3.084 1.438 6.638.044 8.08-3.047l4.708-10.097a5.287 5.287 0 0 1 7.023-2.566c2.643 1.233 3.784 4.38 2.058 8.082-.68 3.242.292 6.281 3.116 7.598 3.084 1.438 6.638.044 8.08-3.047l3.43-7.355a5.287 5.287 0 0 1 7.023-2.566c2.643 1.233 3.784 4.38 2.058 8.081-.68 3.242.292 6.282 3.116 7.599 3.084 1.438 6.638.044 8.08-3.047l5.027-10.783a5.287 5.287 0 0 1 7.023-2.565c2.643 1.232 3.785 4.38 2.059 8.081-.68 3.242.292 6.282 3.116 7.598 3.083 1.438 6.638.045 8.08-3.046l4.228-9.069a5.287 5.287 0 0 1 7.023-2.565c2.643 1.232 3.784 4.38 1.58 9.108-.68 3.242.292 6.282 3.115 7.599 3.084 1.438 6.639.044 8.08-3.047l9.182-19.692a5.287 5.287 0 0 1 7.023-2.566c2.643 1.233 3.784 4.38 2.058 8.082-.679 3.241.293 6.281 3.116 7.598 3.084 1.438 6.639.044 8.08-3.047l1.672-3.585a5.287 5.287 0 0 1 7.023-2.566c2.643 1.233 3.784 4.38 2.218 7.738-.679 3.242.293 6.281 3.116 7.598 3.084 1.438 6.639.045 8.08-3.046l1.512-3.244a5.287 5.287 0 0 1 7.023-2.566c2.644 1.233 3.785 4.38 2.059 8.082-.68 3.241.292 6.281 3.116 7.598 3.083 1.438 6.638.044 8.08-3.047l6.305-13.524a5.287 5.287 0 0 1 7.023-2.565c2.644 1.232 3.785 4.38 1.74 8.766-.68 3.242.292 6.282 3.115 7.599 3.084 1.438 6.639.044 8.08-3.047l1.832-3.929a5.287 5.287 0 0 1 7.023-2.566 5.287 5.287 0 0 1 2.549 7.03l-1.45 3.108c-.679 3.242.293 6.281 3.117 7.598 3.083 1.438 6.638.044 7.102-.95a5.287 5.287 0 0 1 7.023-2.566 5.287 5.287 0 0 1 2.549 7.03l-1.197 2.565c-.679 3.242.293 6.281 3.116 7.598 3.084 1.438 6.639.045 8.08-3.046l1.26-2.701a5.287 5.287 0 0 1 7.022-2.566 5.287 5.287 0 0 1 2.55 7.03l-4.392 9.418c-.68 3.242.292 6.282 3.116 7.598 3.083 1.438 6.638.045 8.08-3.046l10.806-23.176c1.28-2.744 4.365-4.013 7.102-2.737 2.738 1.277 3.75 4.457 2.47 7.2l-13.927 29.868c-1.261 4.49.918 6.605 3.338 7.734 2.233 1.041 4.897.662 6.79-.891l1.183-2.539c1.236-2.65 4.227-3.87 7.312-2.43 2.643 1.232 3.495 4.244 1.376 8.79-.323 2.717 1.1 5.352 3.565 6.502 2.42 1.128 5.258 1.353 7.886-2.5l13.927-29.867c1.28-2.744 4.365-4.013 7.103-2.737 2.737 1.277 3.749 4.457 2.469 7.2l-10.806 23.177c-1.442 3.09-.224 6.71 2.86 8.148 2.823 1.316 5.776.107 7.823-2.497l4.391-9.419a5.287 5.287 0 0 1 7.023-2.566 5.287 5.287 0 0 1 2.55 7.03l-1.26 2.7c-1.441 3.092-.224 6.71 2.86 8.149 2.823 1.316 5.776.107 7.823-2.497l1.196-2.566a5.287 5.287 0 0 1 7.023-2.565c2.643 1.232 3.784 4.38 3.526 4.933-1.44 3.09-.223 6.71 2.86 8.148 2.824 1.316 5.777.107 7.823-2.497l1.45-3.108a5.287 5.287 0 0 1 7.023-2.566 5.287 5.287 0 0 1 2.549 7.03l-1.832 3.928c-1.442 3.091-.224 6.71 2.86 8.148 2.823 1.317 5.776.108 8.633-4.234a5.287 5.287 0 0 1 7.023-2.566 5.287 5.287 0 0 1 2.549 7.03l-6.306 13.524c-1.442 3.09-.224 6.71 2.86 8.148 1.657.773 3.36.675 4.997-.278l2.755-5.178a5.277 5.277 0 0 1 7.135-2.177 5.264 5.264 0 0 1 2.662 3.455 5.293 5.293 0 0 1 .336 5.093l-1.512 3.243c-1.442 3.091-.224 6.71 2.86 8.148 2.823 1.317 5.776.108 8.153-3.205a5.287 5.287 0 0 1 7.023-2.566 5.287 5.287 0 0 1 2.549 7.03l-1.672 3.585c-1.441 3.091-.224 6.71 2.86 8.148 2.823 1.317 5.776.107 8.313-3.549a5.287 5.287 0 0 1 7.023-2.565 5.287 5.287 0 0 1 2.55 7.029l-9.183 19.692a6.299 6.299 0 0 0-.526 3.661c.435.458.952.855 1.547 1.17 2.75 1.461 5.756.416 7.93-2.066l6.024-11.323a5.277 5.277 0 0 1 7.136-2.177 5.27 5.27 0 0 1 2.184 7.13l-9.632 18.102c-1.595 2.998-.565 6.663 2.437 8.258 2.75 1.461 5.756.416 7.93-2.066l5.14-9.662a5.277 5.277 0 0 1 7.136-2.177 5.27 5.27 0 0 1 2.184 7.129 69.802 69.802 0 0 0-7.367 22.8c-1.722 12.068-1.314 19.145.228 27.227a5.275 5.275 0 0 1-5.277 5.273 5.277 5.277 0 0 1-5.278-5.274l-.001-10.95c-.755-3.214-2.919-5.55-6.032-5.55-3.4 0-6.032 2.755-6.032 6.153l.002 20.516a5.275 5.275 0 0 1-5.278 5.273 5.277 5.277 0 0 1-5.278-5.274V624c-.755-3.213-2.919-5.549-6.033-5.549-3.4 0-6.031 2.755-6.031 6.152L1348.318 603c-.12-.513-2.226-3.673-5.667-8.614z" fill="#B58FC1"/><path d="M9.028 586.864s.273 4.542 5.242 4.208c2.908-.196 4.695-2.61 4.473-6.83.585-3.248 2.623-5.694 5.733-5.856 3.396-.178 6.168 2.436 6.346 5.829l.63 11.993a5.277 5.277 0 0 0 5.546 4.99c2.911-.152 5.147-2.633 4.926-6.853.584-3.248 2.623-5.694 5.732-5.856 3.396-.178 6.168 2.436 6.346 5.829l.27 5.128c.157 3.012 2.541 5.336 5.556 5.179 3.015-.158 5.143-2.718 4.883-7.672.512-4.618 3.357-5.76 6.02-5.9 3.397-.178 6.633 2.438 6.828 6.156l.346 6.595a5.277 5.277 0 0 0 5.547 4.99 5.275 5.275 0 0 0 4.994-5.542l-.91-17.33c.585-3.248 2.624-5.693 5.734-5.856 3.395-.177 6.167 2.436 6.346 5.83l.186 3.56a5.277 5.277 0 0 0 5.547 4.991c2.911-.152 5.147-2.634 4.855-8.202.585-3.248 2.623-5.693 5.733-5.856 3.395-.178 6.168 2.436 6.346 5.83l.226 4.312a5.277 5.277 0 0 0 5.547 4.99c2.91-.151 5.147-2.633 4.855-8.2.584-3.249 2.623-5.694 5.732-5.857 3.396-.178 6.168 2.436 6.346 5.83l.227 4.312a5.277 5.277 0 0 0 5.547 4.99 5.275 5.275 0 0 0 4.994-5.541l-.219-4.165c.585-3.248 3.016-5.582 6.115-5.876 3.256-.308 6.336 1.668 6.6 4.307 0 0 .273 4.543 5.242 4.208 2.908-.196 4.695-2.61 4.473-6.83.585-3.248 2.623-5.694 5.733-5.856 3.396-.178 6.168 2.436 6.346 5.829l.63 11.993a5.277 5.277 0 0 0 5.547 4.99c2.91-.152 5.146-2.633 4.925-6.853.584-3.248 2.623-5.693 5.733-5.856 3.395-.178 6.167 2.436 6.346 5.83l.269 5.127c.158 3.012 2.542 5.337 5.557 5.179 3.014-.158 5.142-2.718 4.882-7.672.513-4.618 3.357-5.76 6.021-5.9 3.397-.177 6.632 2.439 6.827 6.156l.189 3.586a5.277 5.277 0 0 0 5.547 4.99 5.275 5.275 0 0 0 4.994-5.542l-.91-17.33c.585-3.248 2.623-5.693 5.733-5.856 3.396-.178 6.168 2.436 6.346 5.83l.187 3.56a5.277 5.277 0 0 0 5.547 4.99c2.91-.152 5.147-2.633 4.854-8.201.585-3.248 2.623-5.693 5.733-5.856 3.396-.178 6.168 2.436 6.346 5.829l.226 4.313a5.277 5.277 0 0 0 5.547 4.99c2.911-.152 5.147-2.633 4.855-8.201.584-3.248 2.623-5.694 5.733-5.856 3.395-.178 6.168 2.436 6.346 5.829l.226 4.313a5.277 5.277 0 0 0 5.547 4.99 5.275 5.275 0 0 0 4.994-5.541l-.218-4.165c.584-3.248 3.015-5.582 6.115-5.876 3.256-.308 6.335 1.668 6.6 4.307 0 0 .273 4.542 5.241 4.208 2.909-.196 4.695-2.61 4.474-6.83.584-3.248 2.623-5.694 5.732-5.856 3.396-.178 6.168 2.436 6.346 5.829l.63 11.993a5.277 5.277 0 0 0 5.547 4.99 5.275 5.275 0 0 0 4.994-5.542l-1.095-20.872c.584-3.248 2.623-5.694 5.732-5.856 3.396-.178 6.168 2.436 6.346 5.829l.227 4.313a5.277 5.277 0 0 0 5.547 4.99 5.275 5.275 0 0 0 4.994-5.542l-.219-4.164c.585-3.248 3.016-5.582 6.115-5.876 3.256-.308 6.336 1.668 6.6 4.307 0 0 .273 4.542 5.242 4.208 2.908-.196 4.695-2.61 4.473-6.83.585-3.248 2.623-5.694 5.733-5.856 3.396-.178 6.168 2.436 6.346 5.829l.63 11.993a5.277 5.277 0 0 0 5.546 4.99c2.911-.152 5.147-2.633 4.926-6.853.584-3.248 2.623-5.694 5.733-5.856 3.395-.178 6.167 2.436 6.345 5.829l.27 5.128c.158 3.012 2.542 5.336 5.556 5.179 3.015-.158 5.143-2.718 4.883-7.672.513-4.618 3.357-5.76 6.021-5.9 3.396-.178 6.632 2.438 6.827 6.156l.347 6.595a5.277 5.277 0 0 0 5.547 4.99 5.275 5.275 0 0 0 4.994-5.542l-.91-17.33c.585-3.248 2.623-5.693 5.733-5.856 3.396-.177 6.168 2.436 6.346 5.83l.187 3.56a5.277 5.277 0 0 0 5.547 4.991c2.91-.152 5.146-2.634 4.854-8.202.585-3.248 2.623-5.693 5.733-5.856 3.396-.178 6.168 2.436 6.346 5.83l.226 4.312a5.277 5.277 0 0 0 5.547 4.991c2.911-.152 5.147-2.634 4.855-8.202.584-3.248 2.623-5.693 5.733-5.856 3.395-.178 6.167 2.436 6.346 5.83l.226 4.312a5.277 5.277 0 0 0 5.547 4.99 5.275 5.275 0 0 0 4.994-5.541l-.219-4.165c.585-3.248 3.016-5.582 6.116-5.876 3.256-.308 6.335 1.668 6.6 4.307 0 0 .273 4.543 5.241 4.208 2.909-.196 4.695-2.61 4.474-6.83.584-3.248 2.623-5.694 5.732-5.856 3.396-.178 6.168 2.436 6.346 5.829l.63 11.993a5.277 5.277 0 0 0 5.547 4.99c2.91-.152 5.147-2.633 4.925-6.853.585-3.248 2.623-5.693 5.733-5.856 3.396-.178 6.168 2.436 6.346 5.83l.269 5.127c.158 3.012 2.542 5.337 5.557 5.179 3.015-.158 5.142-2.718 4.882-7.672.513-4.618 3.357-5.76 6.021-5.9 3.397-.177 6.633 2.439 6.828 6.156l.188 3.586a5.277 5.277 0 0 0 5.547 4.99 5.275 5.275 0 0 0 4.994-5.542l-.91-17.33c.585-3.248 2.624-5.693 5.733-5.856 3.396-.178 6.168 2.436 6.346 5.83l.187 3.56a5.277 5.277 0 0 0 5.547 4.99c2.91-.151 5.147-2.633 4.855-8.2.584-3.25 2.623-5.694 5.732-5.857 3.396-.178 6.168 2.436 6.346 5.829l.227 4.313a5.277 5.277 0 0 0 5.547 4.99c2.91-.152 5.146-2.633 4.854-8.201.585-3.248 2.623-5.693 5.733-5.856 3.396-.178 6.168 2.436 6.346 5.829l.226 4.313a5.277 5.277 0 0 0 5.547 4.99 5.275 5.275 0 0 0 4.994-5.541l-.218-4.165c.584-3.248 3.015-5.582 6.115-5.876 3.256-.308 6.335 1.668 6.6 4.307 0 0 .273 4.542 5.241 4.208 2.909-.196 4.695-2.61 4.474-6.83.585-3.248 2.623-5.694 5.733-5.856 3.395-.178 6.168 2.436 6.346 5.829l.63 11.993a5.277 5.277 0 0 0 5.546 4.99c2.911-.152 5.147-2.633 4.925-6.853.585-3.248 2.624-5.694 5.733-5.856 3.396-.178 6.168 2.436 6.346 5.829l.27 5.128c.157 3.012 2.541 5.336 5.556 5.179 3.015-.158 5.142-2.718 4.883-7.672.512-4.618 3.357-5.76 6.02-5.9 3.397-.178 6.633 2.438 6.828 6.156l.208 3.962a5.277 5.277 0 0 0 5.547 4.991c2.91-.152 5.147-2.634 4.934-6.697.584-3.248 2.434-5.684 5.544-5.846 2.64-.139 4.793 1.419 5.669 3.714l.576 10.972a5.277 5.277 0 0 0 5.547 4.99 5.275 5.275 0 0 0 4.994-5.542l-.574-10.935c.584-3.249 2.623-5.694 5.732-5.857 3.396-.177 6.168 2.436 6.346 5.83l1.076 20.487a5.277 5.277 0 0 0 5.547 4.991 5.275 5.275 0 0 0 4.994-5.542l-.673-12.816c.585-3.248 2.623-5.693 5.733-5.856 3.396-.178 6.168 2.436 6.346 5.83l.187 3.56a5.277 5.277 0 0 0 5.547 4.99 5.275 5.275 0 0 0 4.994-5.542l-.298-5.668c.585-3.249 2.623-5.694 5.733-5.857 3.396-.177 6.168 2.436 6.346 5.83l.345 6.57a5.277 5.277 0 0 0 5.547 4.99c2.91-.152 5.147-2.633 4.894-7.45.584-3.247 2.623-5.693 5.733-5.855 3.395-.178 6.168 2.436 6.346 5.829l1.095 20.865c.086 1.646 1.108 3.065 2.342 3.968 1.028 1.132 2.726 1.802 4.374 1.716 2.91-.153 4.77-2.614 4.557-6.678.584-3.248 2.623-5.693 5.732-5.856 3.396-.178 6.168 2.436 6.346 5.83l.424 8.074a5.277 5.277 0 0 0 5.547 4.99c2.911-.152 5.147-2.633 4.934-6.696.584-3.249 2.623-5.694 5.732-5.857 3.396-.177 6.168 2.436 6.346 5.83l.622 11.836a5.277 5.277 0 0 0 5.547 4.99c2.91-.152 5.146-2.633 4.933-6.696.585-3.249 2.623-5.694 5.733-5.857 3.396-.177 6.168 2.436 6.346 5.83l.917 17.478a5.277 5.277 0 0 0 5.547 4.99 5.275 5.275 0 0 0 4.994-5.542l-.514-9.806c.584-3.248 2.623-5.693 5.732-5.856 3.396-.178 6.168 2.436 6.346 5.83l1.135 21.616a5.277 5.277 0 0 0 5.547 4.991 5.275 5.275 0 0 0 4.994-5.542l-.574-10.935c.585-3.249 2.623-5.694 5.733-5.857 3.395-.177 6.168 2.436 6.346 5.83l1.075 20.487a5.277 5.277 0 0 0 5.547 4.991 5.275 5.275 0 0 0 4.994-5.542l-.673-12.816c.585-3.248 2.624-5.693 5.733-5.856 3.396-.178 6.168 2.436 6.346 5.83l.187 3.56a5.277 5.277 0 0 0 5.547 4.99 5.275 5.275 0 0 0 4.994-5.542l-.297-5.669c.584-3.248 2.623-5.693 5.732-5.856 3.396-.177 6.168 2.436 6.346 5.83l.345 6.57a5.277 5.277 0 0 0 5.547 4.99c2.911-.152 5.147-2.633 4.894-7.45.585-3.247 2.623-5.693 5.733-5.855 3.396-.178 6.168 2.436 6.346 5.829l1.095 20.865a5.277 5.277 0 0 0 5.547 4.99 5.275 5.275 0 0 0 4.994-5.542l-.613-11.688c.584-3.248 2.623-5.693 5.732-5.856 3.396-.178 6.168 2.436 6.226 3.528a5.277 5.277 0 0 0 5.547 4.99 5.275 5.275 0 0 0 4.994-5.542l-.582-11.092c.584-3.248 2.623-5.693 5.732-5.856 3.396-.178 6.168 2.436 6.346 5.83l.59 11.24a5.277 5.277 0 0 0 5.547 4.99 5.275 5.275 0 0 0 4.994-5.542l-.542-10.34c.584-3.247 2.623-5.693 5.732-5.855 3.396-.178 6.168 2.436 6.379 6.443.158 3.012 2.542 5.336 5.556 5.178 3.015-.157 5.143-2.717 4.985-5.73l-.418-7.96c.513-4.618 3.324-5.759 5.989-5.898 2.46-.129 5.09 1.2 5.958 3.357l.146 2.787c.153 2.908 2.75 5.137 6.242 4.954 2.91-.152 4.452-2.597 4.19-7.587 1.37-2.665 3.023-4.535 5.738-4.677 2.664-.14 5.379.712 6.372 5.252l.418 7.96c.158 3.012 2.542 5.336 5.557 5.178 3.014-.157 5.142-2.718 4.952-6.344-.178-3.393 2.305-6.282 5.7-6.46 3.11-.162 5.394 2.057 6.315 5.226l.543 10.34a5.277 5.277 0 0 0 5.547 4.99 5.275 5.275 0 0 0 4.994-5.542l-.59-11.24c-.178-3.394 2.305-6.283 5.7-6.46 3.11-.163 5.394 2.056 6.315 5.226l.582 11.091a5.277 5.277 0 0 0 5.547 4.991c2.911-.152 5.147-2.634 5.115-3.24-.178-3.394 2.306-6.283 5.701-6.46 3.11-.163 5.393 2.056 6.315 5.225l.613 11.688a5.277 5.277 0 0 0 5.547 4.99 5.275 5.275 0 0 0 4.994-5.542l-1.095-20.864c-.178-3.393 2.305-6.282 5.701-6.46 3.11-.163 5.393 2.056 6.415 7.133a5.277 5.277 0 0 0 5.547 4.99 5.275 5.275 0 0 0 4.994-5.542l-.345-6.57c-.178-3.393 2.305-6.282 5.7-6.46 3.11-.162 5.394 2.057 6.315 5.226l.298 5.67a5.277 5.277 0 0 0 5.547 4.99 5.275 5.275 0 0 0 4.994-5.542l-.187-3.561c-.178-3.393 2.305-6.282 5.701-6.46 3.11-.163 5.393 2.057 6.314 5.226l.673 12.815a5.277 5.277 0 0 0 5.547 4.991 5.275 5.275 0 0 0 4.994-5.542l-1.075-20.488c-.178-3.393 2.305-6.282 5.7-6.46 3.11-.163 5.394 2.057 6.315 5.226l.574 10.935a5.277 5.277 0 0 0 5.547 4.991 5.275 5.275 0 0 0 4.994-5.542c-2.973-11.993-4.712-20.214-5.216-24.663.17-3.581.363-5.603.578-6.063l9.149-19.606a5.27 5.27 0 0 0-2.554-7.005 5.277 5.277 0 0 0-7.012 2.547l-4.627 9.918c-2.042 2.592-4.99 3.794-7.811 2.479-3.082-1.436-4.302-5.043-2.866-8.12l8.67-18.582a5.27 5.27 0 0 0-2.553-7.005 5.277 5.277 0 0 0-7.012 2.548l-5.424 11.623c-2.04 2.592-4.989 3.793-7.81 2.478-3.082-1.436-4.302-5.042-2.866-8.12l1.507-3.23a5.27 5.27 0 0 0-2.554-7.004 5.277 5.277 0 0 0-7.012 2.547l-2.399 5.142c-2.041 2.592-4.989 3.793-7.81 2.478-3.082-1.436-4.302-5.042-2.867-8.12l2.781-5.959a5.27 5.27 0 0 0-2.554-7.005 5.277 5.277 0 0 0-7.011 2.548c-2.849 4.321-5.797 5.523-8.619 4.208-3.081-1.436-4.301-5.043-2.865-8.12l8.83-18.923a5.27 5.27 0 0 0-2.554-7.006 5.277 5.277 0 0 0-7.012 2.548l-4.946 10.6c-2.041 2.592-4.99 3.794-7.81 2.479-3.082-1.436-4.302-5.043-2.867-8.12.257-.55-.886-3.687-3.527-4.918a5.277 5.277 0 0 0-7.012 2.548l-4.694 10.06c-2.041 2.591-4.99 3.793-7.811 2.478-3.082-1.436-4.302-5.043-2.866-8.12l4.757-10.195a5.27 5.27 0 0 0-2.554-7.005 5.277 5.277 0 0 0-7.011 2.548l-4.376 9.377c-2.041 2.592-4.989 3.793-7.81 2.478-3.082-1.435-4.302-5.042-2.866-8.12 1.534-3.288.52-6.457-2.215-7.732-2.736-1.275-5.816-.014-7.091 2.718l-3.369 7.22c-2.62 3.834-5.456 3.607-7.874 2.48-2.464-1.148-3.296-3.499-3.568-6.482 2.112-4.525 1.599-7.367-1.042-8.598-3.169-1.477-6.412-.384-7.643 2.254l-1.179 2.527c-1.613 1.674-4.548 1.92-6.78.88-2.419-1.127-4.598-3.236-3.343-7.707l3.368-7.22c1.275-2.732.262-5.9-2.474-7.175-2.736-1.275-5.816-.014-7.091 2.718-1.696 3.634-5.245 5.018-8.326 3.582-2.822-1.315-3.796-4.344-3.121-7.572l4.376-9.378a5.27 5.27 0 0 0-2.554-7.005 5.277 5.277 0 0 0-7.012 2.548l-4.757 10.195c-1.436 3.077-4.985 4.461-8.067 3.025-2.821-1.315-3.795-4.344-3.12-7.572l4.694-10.06a5.27 5.27 0 0 0-2.554-7.005 5.277 5.277 0 0 0-7.012 2.547c-.462.99-4.01 2.375-7.092.939-2.822-1.315-3.796-4.344-3.121-7.573l4.946-10.6a5.27 5.27 0 0 0-2.554-7.005 5.277 5.277 0 0 0-7.011 2.547l-8.83 18.924c-1.437 3.077-4.985 4.461-8.067 3.025-2.822-1.315-3.796-4.344-3.12-7.572 2.037-4.368.894-7.504-1.748-8.735a5.277 5.277 0 0 0-7.011 2.548l-2.78 5.959c-1.437 3.077-4.986 4.461-8.067 3.025-2.822-1.315-3.796-4.344-3.121-7.572l2.399-5.142a5.27 5.27 0 0 0-2.554-7.005 5.277 5.277 0 0 0-7.012 2.548l-1.506 3.23c-1.436 3.077-4.985 4.46-8.067 3.025-2.822-1.315-3.796-4.344-3.12-7.573l5.423-11.623a5.27 5.27 0 0 0-2.554-7.005 5.277 5.277 0 0 0-7.012 2.548l-8.67 18.581c-1.436 3.078-4.985 4.462-8.067 3.026-2.822-1.315-3.795-4.344-3.12-7.573l4.627-9.918a5.27 5.27 0 0 0-2.554-7.005 5.277 5.277 0 0 0-7.011 2.548l-9.149 19.606c-1.436 3.077-4.985 4.461-8.066 3.025-2.822-1.315-3.796-4.344-3.121-7.572l4.15-8.894a5.27 5.27 0 0 0-2.554-7.005 5.277 5.277 0 0 0-7.012 2.548l-7.397 15.852c-1.436 3.077-4.985 4.461-8.066 3.025-2.822-1.315-3.796-4.344-3.121-7.572 1.72-3.686.576-6.822-2.065-8.053a5.277 5.277 0 0 0-7.012 2.548l-5.01 10.735c-1.435 3.078-4.984 4.462-8.065 3.026-2.822-1.315-3.796-4.344-3.121-7.573 1.72-3.685.576-6.821-2.066-8.052a5.277 5.277 0 0 0-7.011 2.547l-3.418 7.324c-1.436 3.077-4.984 4.462-8.066 3.026-2.822-1.315-3.796-4.344-3.12-7.573 1.719-3.685.917-6.662-1.724-7.893-1.495-.697-3.32-.712-4.697-.048-1.483.375-2.962 1.307-3.658 2.8l-8.83 18.924c-1.436 3.077-4.985 4.461-8.067 3.025-2.822-1.315-3.795-4.344-3.12-7.572 2.037-4.368.894-7.504-1.748-8.735a5.277 5.277 0 0 0-7.011 2.547l-2.78 5.96c-1.437 3.077-4.986 4.46-8.067 3.025-2.822-1.315-3.796-4.344-3.121-7.573l2.4-5.141a5.27 5.27 0 0 0-2.555-7.005 5.277 5.277 0 0 0-7.011 2.547l-1.507 3.23c-1.436 3.077-4.985 4.462-8.067 3.026-2.822-1.315-3.795-4.344-3.12-7.573l5.423-11.623a5.27 5.27 0 0 0-2.554-7.005 5.277 5.277 0 0 0-7.012 2.547l-8.67 18.582c-1.436 3.077-4.985 4.462-8.067 3.026-2.821-1.315-3.795-4.344-3.12-7.573l4.627-9.918a5.27 5.27 0 0 0-2.554-7.005 5.277 5.277 0 0 0-7.011 2.548l-4.643 9.95c-1.672 1.8-4.251 2.436-6.647 1.32-2.822-1.315-3.625-4.264-2.95-7.493 1.72-3.685.576-6.822-2.065-8.053a5.277 5.277 0 0 0-7.012 2.548l-1.677 3.594c-1.573 3.372-5.553 4.584-8.635 3.148-2.417-1.127-4.626-3.25-3.372-7.721 2.097-4.493 1.083-7.662-1.652-8.936-2.736-1.275-5.817-.014-7.092 2.718l-2.17 4.65c-1.436 3.078-4.985 4.462-8.066 3.026-2.822-1.315-3.796-4.344-3.121-7.572 1.786-3.828.642-6.964-2-8.195a5.277 5.277 0 0 0-7.01 2.548l-5.076 10.877c-1.436 3.078-4.985 4.462-8.067 3.026-2.821-1.315-3.795-4.344-3.12-7.573 1.785-3.827 1.033-6.733-1.59-8.003-4.48-2.17-6.435 1.936-6.435 1.936-1.234 2.347-4.828 3.025-7.731 1.52-2.764-1.433-4.143-4.505-3.468-7.734l1.762-3.777a5.27 5.27 0 0 0-2.554-7.005 5.277 5.277 0 0 0-7.012 2.548l-1.825 3.912c-1.436 3.077-4.985 4.461-8.066 3.025-2.822-1.315-3.796-4.344-3.121-7.572 2.356-5.05 1.213-8.187-1.429-9.418a5.277 5.277 0 0 0-7.011 2.548l-1.826 3.912c-1.436 3.077-4.985 4.462-8.066 3.026-2.822-1.315-3.796-4.344-3.121-7.573 2.356-5.05 1.213-8.186-1.428-9.417a5.277 5.277 0 0 0-7.012 2.547l-1.507 3.23c-1.436 3.077-4.985 4.462-8.066 3.026-2.822-1.315-3.796-4.344-3.121-7.573l7.334-15.717a5.27 5.27 0 0 0-2.554-7.005 5.277 5.277 0 0 0-7.012 2.547l-1.517 3.252c-1.574 3.372-5.553 4.584-8.635 3.148-2.418-1.126-4.627-3.25-3.372-7.721 2.096-4.493 1.083-7.661-1.653-8.936-2.736-1.275-5.816-.014-7.091 2.718l-2.17 4.651c-1.436 3.077-4.985 4.462-8.067 3.026-2.822-1.315-3.795-4.344-3.12-7.573 1.785-3.827.642-6.964-2-8.195a5.277 5.277 0 0 0-7.011 2.548l-5.076 10.877c-1.436 3.078-4.985 4.462-8.066 3.026-2.822-1.315-3.796-4.344-3.121-7.573 1.786-3.827 1.034-6.733-1.59-8.003-4.48-2.17-6.434 1.937-6.434 1.937-1.234 2.346-4.83 3.025-7.732 1.52-2.763-1.433-4.143-4.506-3.468-7.735l1.762-3.776a5.27 5.27 0 0 0-2.554-7.006 5.277 5.277 0 0 0-7.011 2.548l-1.826 3.912c-1.436 3.077-4.985 4.462-8.066 3.026-2.822-1.315-3.796-4.344-3.121-7.573 2.356-5.05 1.213-8.186-1.428-9.417a5.277 5.277 0 0 0-7.012 2.547l-1.825 3.912c-1.436 3.078-4.985 4.462-8.067 3.026-2.821-1.315-3.795-4.344-3.12-7.573 2.356-5.05 1.212-8.186-1.43-9.417a5.277 5.277 0 0 0-7.01 2.548l-1.508 3.23c-1.436 3.077-4.984 4.46-8.066 3.025-2.822-1.315-3.796-4.344-3.12-7.573l7.333-15.717a5.27 5.27 0 0 0-2.554-7.005 5.277 5.277 0 0 0-7.011 2.548l-2.792 5.981c-1.573 3.372-5.552 4.584-8.634 3.148-2.418-1.127-4.627-3.25-3.372-7.721 2.096-4.493 1.082-7.662-1.653-8.936-2.736-1.275-5.817-.014-7.091 2.718l-2.17 4.65c-1.437 3.078-4.986 4.462-8.067 3.026-2.822-1.315-3.796-4.344-3.121-7.572 1.786-3.828.642-6.964-1.999-8.195a5.277 5.277 0 0 0-7.011 2.548l-5.076 10.877c-1.436 3.078-4.985 4.462-8.066 3.026-2.822-1.315-3.796-4.344-3.121-7.573 1.785-3.827 1.034-6.733-1.59-8.003-4.48-2.17-6.435 1.936-6.435 1.936-1.234 2.347-4.828 3.025-7.731 1.52-2.764-1.433-4.143-4.505-3.468-7.734l1.762-3.777a5.27 5.27 0 0 0-2.554-7.005 5.277 5.277 0 0 0-7.011 2.548l-1.826 3.912c-1.436 3.077-4.985 4.461-8.066 3.025-2.822-1.315-3.796-4.344-3.121-7.572l8.833-18.93a5.27 5.27 0 0 0-2.554-7.006 5.277 5.277 0 0 0-7.011 2.548l-5.076 10.877c-1.436 3.078-4.985 4.462-8.066 3.026-2.822-1.315-3.796-4.344-3.121-7.573 1.786-3.827 1.034-6.733-1.59-8.003-4.48-2.17-6.435 1.936-6.435 1.936-1.233 2.347-4.828 3.025-7.731 1.52-2.763-1.433-4.143-4.505-3.468-7.734l1.762-3.777a5.27 5.27 0 0 0-2.554-7.005 5.277 5.277 0 0 0-7.011 2.548l-1.826 3.912c-1.436 3.077-4.985 4.461-8.066 3.025-2.822-1.315-3.796-4.344-3.121-7.572 2.356-5.05 1.213-8.187-1.428-9.418a5.277 5.277 0 0 0-7.012 2.548l-1.825 3.912c-1.436 3.077-4.985 4.462-8.067 3.026-2.822-1.315-3.795-4.344-3.12-7.573 2.356-5.05 1.212-8.186-1.43-9.417a5.277 5.277 0 0 0-7.01 2.547l-1.508 3.23c-1.436 3.077-4.985 4.462-8.066 3.026-2.822-1.315-3.796-4.344-3.121-7.573l7.334-15.717a5.27 5.27 0 0 0-2.554-7.005 5.277 5.277 0 0 0-7.012 2.547l-1.517 3.252c-1.573 3.372-5.553 4.584-8.635 3.148-2.417-1.126-4.626-3.25-3.372-7.721 2.096-4.493 1.083-7.661-1.653-8.936-2.736-1.275-5.816-.014-7.09 2.718l-2.171 4.651c-1.436 3.077-4.985 4.462-8.066 3.026-2.822-1.315-3.796-4.344-3.121-7.573 1.785-3.827.642-6.964-2-8.195a5.277 5.277 0 0 0-7.011 2.548l-5.076 10.877c-1.436 3.078-4.984 4.462-8.066 3.026-2.822-1.315-3.796-4.344-3.12-7.573 1.785-3.827 1.033-6.733-1.59-8.003-4.48-2.17-6.435 1.937-6.435 1.937-1.234 2.346-4.829 3.025-7.732 1.52-2.763-1.433-4.142-4.506-3.468-7.735l1.763-3.776a5.27 5.27 0 0 0-2.554-7.006 5.277 5.277 0 0 0-7.012 2.548l-1.825 3.912c-1.436 3.077-4.985 4.462-8.067 3.026-2.821-1.315-3.795-4.344-3.12-7.573 2.356-5.05 1.212-8.186-1.43-9.417a5.277 5.277 0 0 0-7.01 2.547l-1.826 3.912c-1.436 3.078-4.985 4.462-8.066 3.026-2.822-1.315-3.796-4.344-3.121-7.573 2.356-5.05 1.213-8.186-1.429-9.417a5.277 5.277 0 0 0-7.011 2.548l-1.507 3.23c-1.436 3.077-4.985 4.46-8.067 3.025-2.821-1.315-3.795-4.344-3.12-7.573l7.333-15.717a5.27 5.27 0 0 0-2.554-7.005 5.277 5.277 0 0 0-7.011 2.548l-2.791 5.981c-1.573 3.372-5.553 4.584-8.635 3.148-2.417-1.127-4.627-3.25-3.372-7.721 2.096-4.493 1.083-7.662-1.653-8.936-2.736-1.275-5.816-.014-7.091 2.718l-2.17 4.65c-1.436 3.078-4.985 4.462-8.067 3.026-2.821-1.315-3.795-4.344-3.12-7.572 1.785-3.828.642-6.964-2-8.195a5.277 5.277 0 0 0-7.011 2.548l-5.076 10.877c-1.436 3.078-4.985 4.462-8.066 3.026-2.822-1.315-3.796-4.344-3.121-7.573 1.786-3.827 1.034-6.733-1.59-8.003-4.48-2.17-6.434 1.936-6.434 1.936-1.234 2.347-4.829 3.025-7.732 1.52-2.763-1.433-4.143-4.505-3.468-7.734l1.762-3.777a5.27 5.27 0 0 0-2.554-7.005 5.277 5.277 0 0 0-7.011 2.548l-1.826 3.912c-1.435 3.077-4.984 4.461-8.066 3.025-2.822-1.315-3.796-4.344-3.12-7.572 2.356-5.05 1.212-8.187-1.43-9.418a5.277 5.277 0 0 0-7.01 2.548l-1.826 3.912c-1.436 3.077-4.985 4.462-8.067 3.026-2.821-1.315-3.795-4.344-3.12-7.573 2.356-5.05 1.212-8.186-1.429-9.417a5.277 5.277 0 0 0-7.011 2.547l-1.507 3.23c-1.436 3.077-4.985 4.462-8.067 3.026-2.822-1.315-3.796-4.344-3.12-7.573l7.333-15.717a5.27 5.27 0 0 0-2.554-7.005 5.277 5.277 0 0 0-7.011 2.547l-9.16 19.629c-1.573 3.371-5.552 4.584-8.634 3.148C1.974 74.142.594 71.913 0 70.218v513.045c5.684-1.015 8.763.962 9.028 3.601z" fill="#FCE579"/></g></svg>