<svg width="143" height="33" viewBox="0 0 143 33" xmlns="http://www.w3.org/2000/svg"><title>Doppler-NewBrand</title><g fill="none" fill-rule="evenodd"><path d="M127.51.162c-8.44-.378-15.635 6.168-16.013 14.607-.217 4.598 1.623 8.872 4.76 11.793l-2.164 5.897 6.06-3.192c1.785.866 3.786 1.407 5.896 1.46 8.44.38 15.635-6.166 16.013-14.606.487-8.385-6.059-15.58-14.552-15.959m6.167 14.012c-.866 1.406-3.246 1.19-3.787-.379 0 0-.649-2.326-3.138-2.38-2.488 0-3.137 2.38-3.137 2.38-.541 1.569-2.922 1.785-3.787.379-.541-.92-.325-1.57-.217-1.894 0 0 1.786-5.139 7.141-5.139 5.356 0 7.141 5.14 7.141 5.14.109.324.325.973-.216 1.893" fill="#FAB221" fill-rule="nonzero"/><path d="M2.164 32.35c-1.19 0-2.11-.919-2.11-2.109V17.798c0-1.19.92-2.11 2.11-2.11H6.6c5.14 0 8.818 3.463 8.818 8.278v.054c0 4.814-3.733 8.33-8.818 8.33H2.164zM6.6 28.403c2.65 0 4.436-1.786 4.436-4.382v-.054c0-2.651-1.785-4.436-4.436-4.436H4.274v8.872H6.6zm18.772 4.218c-5.031 0-8.818-3.678-8.818-8.547v-.054c0-4.815 3.895-8.602 8.872-8.602 5.031 0 8.818 3.679 8.818 8.548v.054c0 4.814-3.895 8.601-8.872 8.601m0-13.254c-2.488 0-4.382 1.948-4.382 4.599v.054c0 2.65 1.894 4.652 4.436 4.652 2.489 0 4.382-1.947 4.382-4.598v-.054c0-2.651-1.893-4.653-4.436-4.653M38.14 32.459a2.08 2.08 0 0 1-2.11-2.11V17.8c0-1.19.92-2.11 2.11-2.11h4.76c3.95 0 6.492 2.326 6.492 5.896v.054c0 3.625-2.651 5.951-6.817 5.951h-2.272v2.813c0 1.136-.973 2.056-2.164 2.056zm4.544-8.764c1.46 0 2.38-.811 2.38-2.056v-.054c0-1.785-1.569-2.055-2.489-2.055H40.25v4.111h2.435v.054zM52.8 32.459a2.08 2.08 0 0 1-2.11-2.11V17.8c0-1.19.92-2.11 2.11-2.11h4.76c3.95 0 6.492 2.326 6.492 5.896v.054c0 3.625-2.65 5.951-6.816 5.951h-2.272v2.813A2.15 2.15 0 0 1 52.8 32.46zm4.544-8.764c1.46 0 2.38-.811 2.38-2.056v-.054c0-1.785-1.568-2.055-2.488-2.055H54.91v4.111h2.434v.054z" fill="#302512" fill-rule="nonzero"/><path d="M67.407 32.35c-1.19 0-2.11-.919-2.11-2.109V17.636c0-1.19.92-2.11 2.11-2.11s2.11.92 2.11 2.11v10.766h6.113a1.94 1.94 0 0 1 1.947 1.947 1.94 1.94 0 0 1-1.947 1.948h-8.223v.054zm13.524 0c-1.19 0-2.11-.919-2.11-2.109V17.798c0-1.19.92-2.11 2.11-2.11h8.872a1.94 1.94 0 0 1 1.948 1.948c0 1.082-.866 1.894-1.948 1.894h-6.708v2.488h5.68a1.94 1.94 0 0 1 1.948 1.948 1.94 1.94 0 0 1-1.948 1.947h-5.68v2.597h6.87a1.94 1.94 0 0 1 1.948 1.947c0 1.082-.865 1.894-1.947 1.894H80.93z" fill="#302512"/><path d="M105.33 32.459c-.812 0-1.461-.325-2.002-1.028l-3.3-4.165h-2.272v3.137c0 1.19-.92 2.11-2.11 2.11s-2.11-.92-2.11-2.11V17.798c0-1.19.92-2.11 2.11-2.11h5.518c2.056 0 3.787.596 4.923 1.732.974.973 1.46 2.326 1.46 3.895v.054c0 2.326-1.027 4.003-2.975 4.977l2.11 2.597c.325.432.65.865.65 1.568.053 1.19-1.029 1.948-2.002 1.948zm-4.382-9.089c1.46 0 2.326-.703 2.326-1.893v-.054c0-1.569-1.299-1.893-2.38-1.893h-3.138v3.84h3.192z" fill="#302512" fill-rule="nonzero"/></g></svg>